<svg width="25" height="25" viewBox="0 0 25 25" fill="none" xmlns="http://www.w3.org/2000/svg">
<path d="M9.08442 8.82154L8.56432 8.89737L2.22317 9.82185L2.22244 9.82196C1.90659 9.86777 1.77726 10.2607 2.00829 10.4856L2.00858 10.4859L6.59625 14.9564L6.97298 15.3235L6.88391 15.8419L5.79896 22.1563C5.74465 22.4737 6.08019 22.7145 6.35876 22.5669L6.36189 22.5652L12.0346 19.5834L12.4999 19.3389L12.9652 19.5834L18.6379 22.5652L18.6381 22.5653C18.9236 22.7154 19.2541 22.4676 19.2009 22.1563L18.1159 15.8419L18.0268 15.3235L18.4036 14.9564L22.9912 10.4859L22.9915 10.4856C23.2226 10.2607 23.0932 9.86777 22.7774 9.82195L22.7767 9.82185L16.4355 8.89737L15.9154 8.82154L15.6829 8.35016L12.8496 2.60548C12.8495 2.60521 12.8494 2.60495 12.8492 2.60468C12.7034 2.31203 12.2913 2.32037 12.1511 2.60363L9.08442 8.82154ZM9.08442 8.82154L9.3169 8.35016L12.1509 2.60401L9.08442 8.82154Z" stroke="#D4AF37" stroke-width="2"/>
</svg>
